<svg xmlns="http://www.w3.org/2000/svg" width="260" height="520" viewBox="0 0 260 520" role="img" aria-labelledby="title">
  <title id="title">SpeachFlow Dashboard Illustration</title>
  <defs>
    <linearGradient id="bg" x1="0%" y1="0%" x2="0%" y2="100%">
      <stop offset="0%" stop-color="#EEF2FF"/>
      <stop offset="100%" stop-color="#E0E7FF"/>
    </linearGradient>
    <linearGradient id="accent" x1="0%" y1="0%" x2="100%" y2="0%">
      <stop offset="0%" stop-color="#6366F1"/>
      <stop offset="100%" stop-color="#8B5CF6"/>
    </linearGradient>
  </defs>
  <rect x="20" y="10" width="220" height="500" rx="28" fill="#0F172A" opacity="0.08"/>
  <rect x="16" y="6" width="228" height="508" rx="32" fill="#111827" opacity="0.08"/>
  <rect x="24" y="14" width="212" height="492" rx="26" fill="white" stroke="#E5E7EB" stroke-width="2"/>
  <rect x="84" y="22" width="92" height="8" rx="4" fill="#D1D5DB"/>
  <rect x="118" y="30" width="24" height="6" rx="3" fill="#E5E7EB"/>

  <rect x="44" y="56" width="172" height="70" rx="16" fill="url(#bg)" stroke="#E0E7FF"/>
  <text x="60" y="82" font-family="Inter, 'Helvetica Neue', Arial, sans-serif" font-size="12" font-weight="700" fill="#1F2937">SpeachFlow Score</text>
  <text x="60" y="106" font-family="Inter, 'Helvetica Neue', Arial, sans-serif" font-size="28" font-weight="800" fill="#111827">87</text>
  <circle cx="170" cy="92" r="22" fill="url(#accent)" opacity="0.18"/>
  <path d="M150 92a20 20 0 1 1 40 0" fill="none" stroke="url(#accent)" stroke-width="6" stroke-linecap="round"/>

  <rect x="44" y="142" width="172" height="64" rx="14" fill="white" stroke="#E5E7EB"/>
  <text x="60" y="166" font-family="Inter, 'Helvetica Neue', Arial, sans-serif" font-size="12" font-weight="700" fill="#111827">Live Feedback</text>
  <rect x="60" y="180" width="72" height="10" rx="5" fill="url(#accent)" opacity="0.8"/>
  <rect x="60" y="196" width="110" height="8" rx="4" fill="#E5E7EB"/>

  <rect x="44" y="218" width="172" height="102" rx="16" fill="white" stroke="#E5E7EB"/>
  <text x="60" y="242" font-family="Inter, 'Helvetica Neue', Arial, sans-serif" font-size="12" font-weight="700" fill="#111827">Analyse</text>
  <rect x="60" y="258" width="132" height="10" rx="5" fill="#E0E7FF"/>
  <rect x="60" y="274" width="112" height="10" rx="5" fill="#6366F1" opacity="0.2"/>
  <rect x="60" y="290" width="92" height="10" rx="5" fill="#8B5CF6" opacity="0.2"/>
  <rect x="60" y="306" width="142" height="10" rx="5" fill="#EEF2FF"/>

  <rect x="44" y="334" width="172" height="130" rx="16" fill="url(#bg)" stroke="#E0E7FF"/>
  <text x="60" y="358" font-family="Inter, 'Helvetica Neue', Arial, sans-serif" font-size="12" font-weight="700" fill="#111827">Trends</text>
  <polyline points="60,410 92,380 124,402 156,368 188,384" fill="none" stroke="url(#accent)" stroke-width="4" stroke-linecap="round" stroke-linejoin="round"/>
  <circle cx="60" cy="410" r="4" fill="#6366F1"/>
  <circle cx="92" cy="380" r="4" fill="#6366F1"/>
  <circle cx="124" cy="402" r="4" fill="#6366F1"/>
  <circle cx="156" cy="368" r="4" fill="#6366F1"/>
  <circle cx="188" cy="384" r="4" fill="#6366F1"/>

  <rect x="44" y="474" width="172" height="16" rx="8" fill="#E5E7EB"/>
</svg>
