<svg xmlns="http://www.w3.org/2000/svg" width="260" height="520" viewBox="0 0 260 520" role="img" aria-labelledby="title">
  <title id="title">SpeachFlow Recording Illustration</title>
  <defs>
    <linearGradient id="bg2" x1="0%" y1="0%" x2="0%" y2="100%">
      <stop offset="0%" stop-color="#F8FAFC"/>
      <stop offset="100%" stop-color="#EEF2FF"/>
    </linearGradient>
    <linearGradient id="wave" x1="0%" y1="50%" x2="100%" y2="50%">
      <stop offset="0%" stop-color="#8B5CF6"/>
      <stop offset="100%" stop-color="#6366F1"/>
    </linearGradient>
  </defs>
  <rect x="20" y="10" width="220" height="500" rx="28" fill="#0F172A" opacity="0.08"/>
  <rect x="16" y="6" width="228" height="508" rx="32" fill="#111827" opacity="0.08"/>
  <rect x="24" y="14" width="212" height="492" rx="26" fill="white" stroke="#E5E7EB" stroke-width="2"/>
  <rect x="84" y="22" width="92" height="8" rx="4" fill="#D1D5DB"/>
  <rect x="118" y="30" width="24" height="6" rx="3" fill="#E5E7EB"/>

  <rect x="44" y="56" width="172" height="68" rx="16" fill="url(#bg2)" stroke="#E5E7EB"/>
  <text x="60" y="82" font-family="Inter, 'Helvetica Neue', Arial, sans-serif" font-size="12" font-weight="700" fill="#111827">Live Aufnahme</text>
  <text x="60" y="104" font-family="Inter, 'Helvetica Neue', Arial, sans-serif" font-size="24" font-weight="800" fill="#DC2626">00:46</text>
  <circle cx="172" cy="90" r="16" fill="#DC2626" opacity="0.14"/>
  <circle cx="172" cy="90" r="8" fill="#DC2626"/>

  <rect x="44" y="138" width="172" height="196" rx="18" fill="url(#bg2)" stroke="#E5E7EB"/>
  <text x="60" y="162" font-family="Inter, 'Helvetica Neue', Arial, sans-serif" font-size="12" font-weight="700" fill="#111827">Ton &amp; Klarheit</text>
  <rect x="60" y="176" width="140" height="10" rx="5" fill="#E5E7EB"/>
  <rect x="60" y="192" width="100" height="10" rx="5" fill="url(#wave)" opacity="0.6"/>
  <g transform="translate(60,214)">
    <rect x="0" y="20" width="8" height="60" rx="4" fill="url(#wave)" opacity="0.8"/>
    <rect x="14" y="0" width="8" height="80" rx="4" fill="url(#wave)" opacity="0.9"/>
    <rect x="28" y="28" width="8" height="52" rx="4" fill="url(#wave)" opacity="0.75"/>
    <rect x="42" y="8" width="8" height="72" rx="4" fill="url(#wave)" opacity="0.85"/>
    <rect x="56" y="32" width="8" height="48" rx="4" fill="url(#wave)" opacity="0.7"/>
    <rect x="70" y="16" width="8" height="64" rx="4" fill="url(#wave)" opacity="0.82"/>
    <rect x="84" y="4" width="8" height="76" rx="4" fill="url(#wave)" opacity="0.9"/>
    <rect x="98" y="26" width="8" height="54" rx="4" fill="url(#wave)" opacity="0.78"/>
    <rect x="112" y="18" width="8" height="62" rx="4" fill="url(#wave)" opacity="0.83"/>
  </g>

  <rect x="44" y="350" width="172" height="96" rx="14" fill="white" stroke="#E5E7EB"/>
  <text x="60" y="374" font-family="Inter, 'Helvetica Neue', Arial, sans-serif" font-size="12" font-weight="700" fill="#111827">Empfehlungen</text>
  <rect x="60" y="388" width="120" height="10" rx="5" fill="#E5E7EB"/>
  <rect x="60" y="404" width="92" height="10" rx="5" fill="#E0E7FF"/>
  <rect x="60" y="420" width="140" height="10" rx="5" fill="#EEF2FF"/>

  <rect x="44" y="460" width="172" height="20" rx="10" fill="#E5E7EB"/>
</svg>
